HIERARCHY
ROOT Hips
{
	OFFSET 0.000000 88.474243 0.000000
	CHANNELS 6 Xposition Yposition Zposition Zrotation Yrotation Xrotation 
	JOINT Hips_Spine
	{
		OFFSET 0.000000 0.000000 0.000000
		CHANNELS 3 Zrotation Yrotation Xrotation
		JOINT Spine
		{
			OFFSET 0.005100 8.711998 -0.691000
			CHANNELS 3 Zrotation Yrotation Xrotation
			JOINT Spine1
			{
				OFFSET -0.009200 8.660301 -1.275000
				CHANNELS 3 Zrotation Yrotation Xrotation
				JOINT Spine2
				{
					OFFSET 0.006300 9.852501 -1.857000
					CHANNELS 3 Zrotation Yrotation Xrotation
					JOINT Spine2_Neck
					{
						OFFSET 0.000000 0.000000 0.000000
						CHANNELS 3 Zrotation Yrotation Xrotation
						JOINT Neck
						{
							OFFSET 0.016300 11.420799 -0.263300
							CHANNELS 3 Zrotation Yrotation Xrotation
							End Site #name: Head
							{
								OFFSET -0.019200 9.262405 2.362500
							}
						}
					}
					JOINT Spine2_LeftShoulder
					{
						OFFSET 0.000000 0.000000 0.000000
						CHANNELS 3 Zrotation Yrotation Xrotation
						JOINT LeftShoulder
						{
							OFFSET 5.616900 6.732201 -0.345700
							CHANNELS 3 Zrotation Yrotation Xrotation
							JOINT LeftArm
							{
								OFFSET 10.664888 -0.183372 -2.440700
								CHANNELS 3 Zrotation Yrotation Xrotation
								JOINT LeftForeArm
								{
									OFFSET 27.459126 0.000000 0.000000
									CHANNELS 3 Zrotation Yrotation Xrotation
									End Site #name: LeftHand
									{
										OFFSET 21.306858 0.000000 0.000000
									}
								}
							}
						}
					}
					JOINT Spine2_RightShoulder
					{
						OFFSET 0.000000 0.000000 0.000000
						CHANNELS 3 Zrotation Yrotation Xrotation
						JOINT RightShoulder
						{
							OFFSET -5.580300 6.737503 -0.344400
							CHANNELS 3 Zrotation Yrotation Xrotation
							JOINT RightArm
							{
								OFFSET -10.679335 -0.188484 -2.383900
								CHANNELS 3 Zrotation Yrotation Xrotation
								JOINT RightForeArm
								{
									OFFSET -27.503529 0.000000 0.000000
									CHANNELS 3 Zrotation Yrotation Xrotation
									End Site #name: RightHand
									{
										OFFSET -21.306808 0.000000 0.000000
									}
								}
							}
						}
					}
				}
			}
		}
	}
	JOINT Hips_LeftUpLeg
	{
		OFFSET 0.000000 0.000000 0.000000
		CHANNELS 3 Zrotation Yrotation Xrotation
		JOINT LeftUpLeg
		{
			OFFSET 6.857700 -6.739601 0.312100
			CHANNELS 3 Zrotation Yrotation Xrotation
			JOINT LeftLeg
			{
				OFFSET -0.367590 -34.731552 -4.572400
				CHANNELS 3 Zrotation Yrotation Xrotation
				End Site #name: LeftFoot
				{
					OFFSET 0.367590 -34.656704 -6.067400
				}
			}
		}
	}
	JOINT Hips_RightUpLeg
	{
		OFFSET 0.000000 0.000000 0.000000
		CHANNELS 3 Zrotation Yrotation Xrotation
		JOINT RightUpLeg
		{
			OFFSET -6.876100 -6.733299 0.301000
			CHANNELS 3 Zrotation Yrotation Xrotation
			JOINT RightLeg
			{
				OFFSET 0.347353 -34.795158 -4.515900
				CHANNELS 3 Zrotation Yrotation Xrotation
				End Site #name: RightFoot
				{
					OFFSET -0.347353 -34.589367 -6.070300
				}
			}
		}
	}
}
MOTION
Frames: 9
Frame Time: 0.041667
-0.068986 0.213144 -0.203322 -1.344827 0.971916 -4.803669 -0.000000 0.000000 0.000000 -2.998837 -0.192326 -3.261112 0.320641 0.905909 -2.569570 0.000000 0.000000 0.000000 -0.885391 0.731055 -0.073610 2.327766 -5.116994 -2.453012 -2.829058 1.576599 0.543500 -8.403564 -10.506989 1.324177 -28.653541 -13.060612 -13.338842 0.976298 -37.544240 -0.229664 0.178187 1.146367 0.091055 6.845083 5.546213 3.674730 31.047193 -2.904648 -17.292753 -3.370630 40.328910 -3.435976 -0.000000 0.000000 0.000000 1.082046 14.821056 -16.258323 7.965355 7.656248 26.446783 0.000000 0.000000 0.000000 5.840743 -8.941163 -21.217037 2.652964 4.051740 31.321884 
-0.149425 0.223620 -0.296591 -0.518780 -0.242019 -4.904052 -0.000000 0.000000 0.000000 -2.082396 1.030521 4.212541 0.190842 1.036170 0.115119 0.000000 0.000000 0.000000 -0.147982 -0.178864 -0.509041 -1.656135 -4.677918 -5.889273 -0.809791 0.961140 0.936629 -11.503196 -12.363543 2.120851 -19.870286 -12.162016 -14.501361 0.469033 -37.379220 0.202626 -0.237713 1.808488 -0.269468 12.989935 3.457428 3.642149 13.707120 6.114788 -22.158450 -1.491754 36.651177 -2.606930 -0.000000 0.000000 0.000000 -0.552095 16.608536 -17.504228 3.744128 4.833065 26.882204 0.000000 0.000000 0.000000 4.248947 -8.016983 -21.087144 1.884260 2.966620 31.087785 
-0.276574 0.344975 -0.370383 -0.822164 0.201405 -5.946245 -0.000000 0.000000 0.000000 -0.634907 0.952653 3.673220 0.107972 0.761933 0.166001 0.000000 0.000000 0.000000 -0.205079 -0.385152 -0.925612 -3.999292 -4.031365 -7.618038 0.035791 0.606952 0.227508 -13.070741 -11.461908 2.322768 -14.912593 -13.093735 -13.220294 1.254540 -35.215402 -0.112011 -0.165271 1.458932 0.250464 12.672211 8.551966 4.986105 9.484157 -2.970512 -20.236303 -0.578635 35.074837 0.822627 -0.000000 0.000000 0.000000 -1.107049 16.288880 -20.244295 1.606796 3.247943 29.586721 -0.000000 -0.000000 0.000000 1.031796 -8.010463 -19.959165 1.209945 2.978113 31.746141 
-0.366659 0.352285 -0.466039 -0.965198 -1.076392 -6.127117 -0.000000 0.000000 0.000000 -0.520298 0.684548 3.196637 0.228052 0.441035 -0.705881 0.000000 0.000000 0.000000 -0.191617 -0.473196 -1.094347 -3.429722 -3.312700 -7.167517 0.605293 0.456622 -0.441682 -13.688227 -9.240838 2.051001 -10.768078 -11.979260 -15.202941 2.011271 -31.183661 -0.554280 -0.135978 1.177184 0.138140 12.837934 12.922273 5.727283 3.575697 -8.150545 -16.597799 0.080859 35.699404 1.816466 0.000000 0.000000 0.000000 -0.385383 16.809889 -17.598629 0.015451 2.507932 27.793162 -0.000000 -0.000000 0.000000 0.374953 -8.347398 -19.612882 0.766090 2.813212 32.720516 
-0.430972 0.259986 -0.573804 -1.692702 -3.394583 -6.336247 -0.000000 0.000000 0.000000 -0.326719 0.433933 2.982211 0.421066 0.048293 -0.983736 0.000000 0.000000 0.000000 -0.024256 -0.420842 -0.788700 -2.414851 -1.676281 -6.265904 1.164130 0.474837 -0.857087 -14.179864 -5.765094 1.538971 -8.315700 -9.009463 -15.398332 2.846725 -27.967576 -0.973461 -0.017566 0.916641 0.010155 13.374329 15.860257 6.241502 1.474789 -9.130197 -11.807353 0.238829 35.682631 2.128222 0.000000 0.000000 0.000000 0.650900 17.299163 -14.871543 -0.759900 1.526860 26.379651 -0.000000 -0.000000 0.000000 0.722686 -8.009369 -18.774677 0.169236 2.175024 31.597447 
-0.498565 0.090999 -0.675989 -2.343621 -5.787598 -6.197742 -0.000000 0.000000 0.000000 -0.342534 0.286739 2.754758 0.564655 -0.224732 -1.010726 0.000000 0.000000 0.000000 0.215504 -0.388521 -0.588032 -1.511554 -0.543690 -5.269416 1.632118 0.468856 -1.114544 -14.069316 -2.913793 1.126645 -6.587161 -6.658896 -13.746248 3.587890 -26.585917 -1.393059 0.154142 0.704181 -0.108462 13.725923 17.272606 6.590152 2.108010 -7.926078 -9.735979 0.170514 35.027515 2.155286 0.000000 0.000000 0.000000 1.536391 17.885769 -13.524067 -0.912552 1.114773 26.211312 -0.000000 -0.000000 0.000000 1.509099 -7.580352 -18.145525 -0.092147 1.966076 30.305142 
-0.542037 -0.117164 -0.753389 -2.605825 -7.482744 -6.131195 -0.000000 0.000000 0.000000 -0.409962 0.183690 2.737536 0.686752 -0.405713 -1.138939 0.000000 0.000000 0.000000 0.497710 -0.359487 -0.422812 -0.782879 0.170348 -4.498534 1.995290 0.443733 -1.294790 -13.658221 -1.007570 0.863349 -5.714062 -6.194224 -12.201504 4.150781 -27.057444 -1.731189 0.288123 0.539990 -0.221339 14.110274 17.449383 6.879735 3.369500 -6.731712 -8.869152 0.043458 34.036808 2.057551 0.000000 0.000000 0.000000 2.257744 18.348359 -13.196151 -0.929524 0.902670 26.168683 -0.000000 -0.000000 0.000000 2.270259 -7.367882 -17.967650 -0.100483 2.001280 29.528017 
-0.565415 -0.322538 -0.800218 -2.728950 -7.800420 -6.023496 -0.000000 0.000000 0.000000 -0.491736 0.063522 2.630499 0.785046 -0.519394 -1.261217 0.000000 0.000000 0.000000 0.754595 -0.285163 -0.323958 -0.064621 0.502842 -3.996370 2.242771 0.340288 -1.405266 -13.286711 -0.135667 0.741481 -5.662237 -6.954604 -10.624041 4.597515 -28.648799 -2.051490 0.321658 0.398983 -0.312625 14.195113 17.038696 6.996391 4.563849 -6.691490 -7.674811 -0.138867 32.692712 2.022193 0.000000 0.000000 0.000000 2.826824 18.693218 -13.171983 -0.999882 0.547388 25.589539 -0.000000 -0.000000 0.000000 2.592729 -7.124725 -18.025969 -0.002016 2.129367 29.126331 
-0.577682 -0.486421 -0.833140 -2.795231 -7.011912 -5.771867 -0.000000 -0.000000 0.000000 -0.600006 -0.083212 2.430634 0.890788 -0.607880 -1.409754 0.000000 0.000000 0.000000 0.988585 -0.205035 -0.313553 0.614220 0.607885 -3.669898 2.381644 0.125891 -1.503081 -13.269364 -0.500710 0.805447 -6.216804 -8.988847 -8.915079 4.887017 -31.250078 -2.391501 0.293642 0.246078 -0.338612 13.966006 16.413183 7.040122 5.482784 -7.811807 -6.642906 -0.313374 31.146586 2.048118 0.000000 0.000000 0.000000 3.311071 18.819579 -13.487994 -1.106566 0.153244 24.984201 -0.000000 -0.000000 0.000000 2.605439 -6.786032 -17.869612 0.075284 2.269069 28.704855 
